<?xml version="1.0" encoding="utf-8"?>
<!-- Generator: Adobe Illustrator 16.0.0, SVG Export Plug-In . SVG Version: 6.00 Build 0)  -->
<!DOCTYPE svg PUBLIC "-//W3C//DTD SVG 1.1//EN" "http://www.w3.org/Graphics/SVG/1.1/DTD/svg11.dtd">
<svg version="1.1" xmlns="http://www.w3.org/2000/svg" xmlns:xlink="http://www.w3.org/1999/xlink" x="0px" y="0px" width="554px"
	 height="482.503px" viewBox="0 9.497 554 482.503" enable-background="new 0 9.497 554 482.503" xml:space="preserve">
<g id="Layer_2">
	<path fill="#F58C9F" fill-opacity="0.47" d="M267.089,65.702c-49.285,2.629-98.714,1.035-142.451,23.878
		c-48.996,25.59-98.672,59.535-117.01,111.634c-18.494,52.54-0.139,110.048,20.814,161.659
		c19.727,48.588,46.259,99.667,94.07,121.312c45.185,20.456,95.708-4.74,144.577-13.27c39.167-6.836,74.861-17.339,112.003-31.511
		c52.879-20.178,119.605-21.479,150.698-68.725c32.605-49.544,28.977-117.623,8.583-173.303
		c-20.019-54.66-64.92-98.173-117.33-123.611C373.663,50.769,319.691,62.896,267.089,65.702z"/>
</g>
<g id="Layer_1">
	<path display="none" fill="#B28B67" d="M263.254,192.408c1.953,26.555,127.78,104.736,128.514,106.93
		c0.326,0.975-12.729,31.792-39.165,92.454l10.999,4.257c40.549-64.244,59.781-99.789,57.699-106.635
		c-2.981-9.801-35.524-42.042-97.627-96.723L263.254,192.408z"/>
	<path fill="#2F3676" d="M355.497,378.092l17.959,6.513c37.866-42.561,52.709-77.677,50.002-95.568
		c-1.804-11.929-34.233-44.116-97.289-96.562l-64.202-0.002c2.19,61.498,118.816,107.1,120.376,109.719
		C383.902,304.813,368.552,330.479,355.497,378.092z"/>
	<path fill="#F9F9F9" d="M348.527,389.76c-2.245,2.625-3.642,4.693-4.19,6.202c-0.668,1.835-1.338,4.625-2.008,8.369
		c2.129,0.775,21.266,7.741,57.411,20.896c3.287-4.389,3.396-7.364,0.323-8.928c-3.071-1.563-5.612-2.89-7.623-3.98l-22.354-21.608
		c-0.431-0.416-1.117-0.404-1.533,0.026c-0.006,0.007-0.014,0.015-0.021,0.021l-3.229,3.537c-3.48,0.305-6.151,0.119-8.012-0.558
		c-1.512-0.55-3.377-1.921-5.596-4.111l0,0c-0.852-0.84-2.223-0.831-3.064,0.021C348.597,389.683,348.562,389.721,348.527,389.76z"
		/>
	<path fill="#997659" d="M277.723,192.408l-56.053,134.046l-55.091,113.325h12.998L321.78,192.408H277.723z"/>
	<path fill="#F9F9F9" d="M165.801,434.654c-1.212,3.234-1.818,5.654-1.818,7.261c0,1.954,0.325,4.804,0.976,8.552
		c2.266,0,22.631,0,61.096,0c1.588-5.249,0.671-8.083-2.749-8.501c-3.421-0.419-6.262-0.797-8.525-1.134l-28.397-12.659
		c-0.546-0.244-1.187,0.001-1.43,0.548c-0.004,0.01-0.008,0.02-0.012,0.028l-1.825,4.428c-3.167,1.478-5.74,2.216-7.72,2.216
		c-1.608,0-3.83-0.649-6.664-1.948l0,0c-1.088-0.498-2.374-0.021-2.873,1.066C165.839,434.558,165.819,434.605,165.801,434.654z"/>
	<path fill="#5C63AB" d="M171.554,416.237l28.881,5.395c22.331-32.703,115.785-166.799,126.033-229.224h-64.296
		C227.953,237.535,192.839,382.992,171.554,416.237z"/>
	<path fill="#B28B67" d="M297.775,61.969c-3.438-6.842-4.995-14.564-2.519-22.166c7.138-21.9,37.226-9.189,40.511,3.581
		c3.284,12.771-4.556,41.132-12.929,41.181c-3.338,0.019-9.535-3.613-15.328-9.376l-3.197,31.021l-25.226-6.289L297.775,61.969z"/>
	<path fill="#191847" d="M336.89,49.031c0.113-1.521-0.094-3.292-0.242-4.795c-0.191-1.937-0.753-3.781-1.434-5.556
		c-1.282-3.343-3.031-6.508-5.138-9.299c-3.848-5.098-9.422-8.874-15.636-9.648c-3.137-0.391-6.381,0.023-9.375,1.313
		c-2.705,1.165-5.527,3.169-8.518,2.618c-3.254-0.599-5.49-4.134-7.629-6.505c-2.41-2.673-5.137-4.864-8.384-6.26
		c-5.441-2.34-11.242-1.769-16.301,1.868c-5.383,3.871-10.201,10.314-9.091,17.498c0.207,1.335,0.605,2.517,1.333,3.596
		c0.667,0.989,1.774,2.14,1.814,3.465c0.042,1.408-1.487,2.829-2.211,3.909c-1.039,1.547-1.988,3.207-2.27,5.1
		c-0.462,3.109,0.74,6.486,2.275,8.988c1.562,2.546,3.817,4.345,6.402,5.56c1.727,0.811,3.533,1.471,5.411,1.797
		c0.933,0.162,1.804,0.111,2.741,0.131c0.912,0.02,1.337,0.368,1.953,1.02c2.857,3.027,6.304,4.782,10.313,5.438
		c3.382,0.553,7.4,0.709,10.666-0.868c3.626-1.751,4.426-5.214,4.639-9.073c0.656,0.554,2.67,1.298,1.799-0.476
		c-0.347-0.703-1.213-1.17-1.758-1.668c-0.633-0.581-1.248-1.28-1.656-2.07c-1.644-3.191,2.005-7.942,5.111-8.1
		c4.613-0.235,4.074,6.016,6.748,8.334c1.538,1.333,3.684,0.57,5.314-0.349c2.183-1.231,3.939-3.146,5.541-5.14
		c1.318-1.643,2.585-3.326,3.918-4.955c0.623-0.761,2.641-2.847,2.176-3.999c3.223,0.159,6.329,2.277,8.561,4.596
		c0.922,0.958,1.568,1.923,1.85,3.279c0.061,0.291,0.14,1.129,0.474,1.247C336.906,50.243,336.86,49.413,336.89,49.031z"/>
	<path fill="#B28B67" d="M366.572,183.031l34.106,25.848c9.326,2.68,17.101,5.946,23.322,9.801c1.461,1.373,3.209,4.131-2.941,3.551
		c-6.151-0.578-12.646-0.912-13.533,1.164c-0.886,2.076,2.797,4.641,1.03,7.431c-1.179,1.86-6.507-2.949-15.984-14.427
		l-33.965-14.715L366.572,183.031z M233.912,181.587l22.631,0.484c-14.758,44.646-22.718,68.335-23.88,71.062
		c-2.614,6.137,2.525,15.641,4.705,20.739c-7.444,3.16-6.444-9.007-15.837-4.856c-8.574,3.789-15.167,10.812-24.889,4.606
		c-1.195-0.763-2.47-3.579,0.767-5.706c8.063-5.298,19.713-14.613,21.32-17.719C220.918,245.963,225.979,223.093,233.912,181.587z"
		/>
	<path fill="#E87613" d="M299.88,88.207l9.395-1.435c34.227,30.476,47.497,88.108,89.559,119.25l-10.472,12.465
		C314.63,208.094,297.538,137.781,299.88,88.207z"/>
	<path fill="#DDE3E9" d="M257.011,204.607c37.552,0.656,65.174,1.139,82.867,1.447c3.785,0.066,3.168-5.387,2.668-8.142
		c-5.765-31.796-29.828-66.382-29.041-111.486l-23.838-4.147C269.344,113.575,261.827,152.412,257.011,204.607z"/>
	<path fill="#FF9B21" d="M259.278,112.86c-3.454-1.053-6.163-3.417-8.126-7.092c-8.463-15.838-5.157-24.42,4.229-27.096
		c9.386-2.676,17.61,3.317,32.486,3.577c0.81,0.014,1.55,0.077,2.22,0.19l7.477,0.556c20.205,72.776,25.281,121.185,15.232,145.226
		l-65.222-1.138c-4.021,8.899-7.851,16.378-11.489,22.438l-17.772-0.311C217.58,195.368,231.235,149.918,259.278,112.86z"/>
	<path fill-opacity="0.1" d="M262.426,190.146c1.752,17.113,4.871,29.566,9.353,37.358l-24.204-0.422
		C252.264,216.702,257.215,204.391,262.426,190.146z"/>
</g>
</svg>
