<svg width="287" height="445" viewBox="0 0 287 445" fill="none" xmlns="http://www.w3.org/2000/svg">
<path fill-rule="evenodd" clip-rule="evenodd" d="M99.2711 186.826C101.224 213.381 227.051 291.562 227.785 293.756C228.111 294.73 215.056 325.548 188.62 386.21L199.619 390.467C240.168 326.223 259.401 290.678 257.318 283.832C254.337 274.031 221.794 241.79 159.691 187.109L99.2711 186.826Z" fill="#B28B67"/>
<path fill-rule="evenodd" clip-rule="evenodd" d="M191.514 372.51L209.472 379.022C247.339 336.462 262.182 301.346 259.475 283.454C257.671 271.526 225.241 239.338 162.185 186.892L97.9833 186.891C100.174 248.388 216.8 293.99 218.359 296.61C219.919 299.231 204.568 324.897 191.514 372.51Z" fill="#2F3676"/>
<path fill-rule="evenodd" clip-rule="evenodd" d="M184.544 384.178C182.299 386.803 180.902 388.871 180.353 390.38C179.685 392.215 179.015 395.005 178.345 398.749C180.475 399.524 199.612 406.49 235.757 419.645C239.044 415.256 239.152 412.28 236.08 410.717C233.009 409.154 230.468 407.827 228.457 406.736L206.103 385.128C205.673 384.712 204.987 384.724 204.571 385.154C204.564 385.161 204.557 385.169 204.55 385.176L201.321 388.713C197.84 389.018 195.169 388.832 193.309 388.155C191.797 387.605 189.932 386.234 187.713 384.044L187.713 384.044C186.861 383.204 185.49 383.213 184.649 384.064C184.613 384.101 184.578 384.139 184.544 384.178Z" fill="#E4E4E4"/>
<path fill-rule="evenodd" clip-rule="evenodd" d="M113.739 186.826L57.6861 320.872L2.59521 434.197H15.5929L157.797 186.826H113.739Z" fill="#997659"/>
<path fill-rule="evenodd" clip-rule="evenodd" d="M1.81779 429.072C0.605931 432.307 0 434.727 0 436.333C0 438.287 0.325416 441.137 0.976247 444.885C3.24229 444.885 23.6075 444.885 62.072 444.885C63.6597 439.636 62.7432 436.802 59.3226 436.384C55.9019 435.965 53.0603 435.587 50.7978 435.25L22.4011 422.591C21.8547 422.347 21.2142 422.592 20.9706 423.139C20.9665 423.148 20.9624 423.158 20.9585 423.167L19.1332 427.595C15.9666 429.072 13.3934 429.811 11.4136 429.811C9.80505 429.811 7.58364 429.161 4.74937 427.862L4.74938 427.862C3.66171 427.364 2.37579 427.841 1.87718 428.929C1.85569 428.976 1.83588 429.023 1.81779 429.072Z" fill="#E4E4E4"/>
<path fill-rule="evenodd" clip-rule="evenodd" d="M7.57019 410.655L36.4513 416.05C58.782 383.347 152.237 249.251 162.484 186.826H98.1879C63.9697 231.953 28.856 377.41 7.57019 410.655Z" fill="#5C63AB"/>
<path fill-rule="evenodd" clip-rule="evenodd" d="M133.792 56.3872C130.353 49.5451 128.797 41.8226 131.274 34.2217C138.411 12.3214 168.499 25.0324 171.784 37.803C175.069 50.5736 167.229 78.9348 158.856 78.9833C155.517 79.0026 149.32 75.3707 143.527 69.6076L140.33 100.629L115.105 94.3396L133.792 56.3872Z" fill="#B28B67"/>
<path fill-rule="evenodd" clip-rule="evenodd" d="M172.906 43.4489C173.02 41.9281 172.813 40.1562 172.664 38.6535C172.472 36.7163 171.911 34.8727 171.23 33.0974C169.948 29.7549 168.199 26.5894 166.093 23.7987C162.245 18.7013 156.671 14.9247 150.457 14.1505C147.32 13.7595 144.076 14.1739 141.082 15.463C138.377 16.6278 135.554 18.6316 132.564 18.0807C129.311 17.4812 127.074 13.9467 124.936 11.5755C122.526 8.90208 119.799 6.71202 116.552 5.31528C111.111 2.97571 105.31 3.5465 100.251 7.18386C94.8682 11.0546 90.0502 17.4979 91.1603 24.6816C91.3667 26.017 91.7658 27.1989 92.4926 28.2773C93.1592 29.2661 94.2668 30.4175 94.3068 31.742C94.349 33.1497 92.8199 34.571 92.0951 35.651C91.0567 37.1984 90.1072 38.8577 89.8257 40.7508C89.3635 43.8598 90.5656 47.2375 92.1005 49.7394C93.6625 52.2854 95.9176 54.0843 98.5025 55.2988C100.229 56.1098 102.035 56.7701 103.913 57.0955C104.846 57.2572 105.717 57.2065 106.654 57.2272C107.566 57.2473 107.991 57.5947 108.607 58.2464C111.464 61.2738 114.911 63.0288 118.92 63.6839C122.302 64.2367 126.321 64.393 129.586 62.8163C133.212 61.065 134.012 57.6028 134.224 53.7435C134.881 54.2979 136.895 55.042 136.023 53.2676C135.677 52.5649 134.81 52.0977 134.266 51.5994C133.633 51.0192 133.017 50.32 132.61 49.5296C130.966 46.3385 134.614 41.588 137.72 41.4296C142.334 41.1943 141.795 47.4453 144.469 49.7637C146.007 51.0967 148.153 50.3337 149.783 49.4147C151.966 48.1836 153.722 46.2692 155.324 44.2748C156.643 42.6325 157.909 40.9492 159.242 39.3202C159.865 38.5594 161.883 36.4734 161.418 35.3217C164.641 35.4804 167.747 37.5987 169.979 39.9176C170.901 40.8761 171.547 41.8402 171.828 43.1966C171.888 43.4872 171.968 44.3263 172.302 44.4431C172.923 44.6605 172.877 43.831 172.906 43.4489Z" fill="#191847"/>
<path fill-rule="evenodd" clip-rule="evenodd" d="M202.589 177.449L236.696 203.297C246.022 205.976 253.796 209.243 260.017 213.097C261.479 214.47 263.226 217.228 257.076 216.649C250.925 216.07 244.43 215.737 243.543 217.812C242.657 219.888 246.34 222.453 244.573 225.243C243.395 227.103 238.067 222.294 228.589 210.816L194.624 196.102L202.589 177.449ZM69.9282 176.005L92.5598 176.489C77.8013 221.136 69.8412 244.824 68.6794 247.551C66.0654 253.687 71.2044 263.192 73.384 268.29C65.9401 271.45 66.9397 259.283 57.5466 263.434C48.9729 267.223 42.3787 274.245 32.6578 268.04C31.4627 267.277 30.1875 264.461 33.4242 262.334C41.488 257.036 53.1378 247.721 54.7441 244.615C56.9345 240.381 61.9959 217.511 69.9282 176.005Z" fill="#B28B67"/>
<path fill-rule="evenodd" clip-rule="evenodd" d="M135.897 82.6248L145.291 81.1898C179.517 111.666 192.788 169.298 234.85 200.44L224.378 212.905C150.646 202.512 133.554 132.199 135.897 82.6248Z" fill="#E87613"/>
<path fill-rule="evenodd" clip-rule="evenodd" d="M93.0273 199.026C130.579 199.682 158.201 200.164 175.894 200.473C179.68 200.539 179.062 195.086 178.562 192.331C172.798 160.535 148.734 125.949 149.521 80.8453L125.684 76.6983C105.361 107.993 97.8439 146.83 93.0273 199.026Z" fill="#DDE3E9"/>
<path fill-rule="evenodd" clip-rule="evenodd" d="M95.2949 107.278C91.8407 106.225 89.132 103.861 87.1689 100.186C78.7062 84.3476 82.0121 75.7662 91.3981 73.0902C100.784 70.4143 109.008 76.4073 123.884 76.6669C124.693 76.681 125.433 76.7444 126.104 76.8571L133.58 77.4126C153.785 150.189 158.862 198.598 148.813 222.639L83.5907 221.501C79.5698 230.4 75.7403 237.879 72.1021 243.939L54.3302 243.629C53.5969 189.786 67.2518 144.336 95.2949 107.278Z" fill="#FF9B21"/>
<path fill-rule="evenodd" clip-rule="evenodd" d="M98.4423 184.564C100.195 201.678 103.313 214.131 107.795 221.923L83.5907 221.501C88.2809 211.12 93.2315 198.808 98.4423 184.564Z" fill="black" fill-opacity="0.1"/>
</svg>
