<svg xmlns="http://www.w3.org/2000/svg" viewBox="0 0 2500 300"><defs><style>.cls-1,.cls-3,.cls-4,.cls-5,.cls-6,.cls-7{fill:none;}.cls-2{clip-path:url(#clip-path);}.cls-3{stroke:#578fcb;}.cls-3,.cls-4,.cls-5,.cls-6,.cls-7{stroke-linejoin:round;}.cls-3,.cls-4,.cls-7{stroke-width:15px;}.cls-4{stroke:#adc5d9;}.cls-5{stroke:#18385e;stroke-width:6.75px;}.cls-6{stroke:#163b65;stroke-width:8px;}.cls-7{stroke:#1a5f96;}</style><clipPath id="clip-path" transform="translate(-2.45 -21.35)"><ellipse class="cls-1" cx="132.15" cy="133.44" rx="132.15" ry="133.44"/></clipPath></defs><defs><style>.minerva-base-style{}</style></defs><g transform="translate(0 0) scale(1.4285714285714286) translate(0 0)" style="fill: #00445F;"><title>minerva</title><path d="M105,0A105,105,0,1,0,210,105,105.1,105.1,0,0,0,105,0Zm0,207.1A102.1,102.1,0,1,1,207.1,105,102.2,102.2,0,0,1,105,207.1Z"/><path class="minerva-base-style" d="M166.6,97c-1.4-3.1-.5-5.1-.9-7.3s-2.7-7-4.3-10.8c-.7-1.7,3.8-1.3.4-7.6,0-.2,4.7-2,0-5.5a26.4,26.4,0,0,1-6-6.7,1,1,0,0,1,0-1.3c2.7-2.4,2.8-5.8-.1-7.5s-4.5,0-6.7,1.4c-.7.5-1.1.8-1.9.5L145.3,51c2.7-2.6,3.3-5.2,3.1-5.6s-4.6-1.3-10.2,1l-.4-.3c2.3-3.9,1-6.7.9-6.9h-.1A81,81,0,0,1,151,25.9h.1c.2-.3.3-.6-.2-.9l-1-.6A92.4,92.4,0,0,0,12.7,105c0,29.5,15,57.9,39.4,75.6a13.5,13.5,0,0,0,2.8,1.6A1.1,1.1,0,0,0,56,182l.3-.5a1,1,0,0,0,.3-.8c0-.7-.9-1.3-2.1-3a27.7,27.7,0,0,1-4.7-15.1,22.1,22.1,0,0,1,4.5-13.7c3.7,3.9,11.7,10.9,11.5,17.4s-6.9,6.8-5.4,12.2c.9,3.4,3.4,2,3.9,4.6.7,4.4,6.7,7.3,9.3,6.9.7-.1,1.2.4,2.4,1.7s6.2,1.6,8.2,1.2,4.1,1.4,8,.9,6.1-.9,8.2-.9,22.5-.3,36,1.8c2.4.4,3.1-.7,2.1-2.5-4.9-8.6-5.6-15.8-2.8-25,5,.4,12.2,1.7,21.6-4a11,11,0,0,0,5.1-9.5c-.1-2.1-1-4.7-.5-6.7s1.3-2.7,2.1-3.2c3.6-2.6,1-4.6.4-4.8a3.4,3.4,0,0,0,1.1-4.6c-.7-.7-2.7-6.2-.4-7.3s5.3-1.8,8.1-3.1a4.5,4.5,0,0,0,2.4-6C174.2,114.4,166.8,97.4,166.6,97ZM64.7,179.1c-.7.2-2.9.3-2.4-2.7s2.3-2.6,3.3-1.6S64.9,177.6,64.7,179.1Zm87-125.9c1.2-.8,2.5-1.1,3.3-.4,2.6,2.6-2.9,4.1-1.8,6.1a30.7,30.7,0,0,0,7.5,8.4c1.2,1,1.4,3.1-3.3,4.1s-23.6,5.9-33.6,16.5c-12.5,13.2-20.4,30.3-21.5,28s-3.6-2.8-3.2-3.5C117,81.6,145.1,57.3,151.7,53.2Zm8.2,21.7c-1,2.9-9.1,5.5-8.7,3.5s0-2.2.6-2.3,3.5-1.1,7.5-2.1C159.7,73.9,160.2,74.1,159.9,74.9Zm-20.6,5.3c-.2-1.2,8.5-4.1,8.8-3.3s-1.8,6-4.7,7-4.7.9-4.6.4A11,11,0,0,0,139.3,80.2ZM119,125.8c-4,2.5-6.2-2.2-6.8-3.1a3.7,3.7,0,0,1-.5-3.1c.3-1.4.5-3.3-.4-9.3-.4-2.7,5-9.2,6.3-10.4s3.1.6,3.2,2.6c.3,3.6-1.8,5.6-3.9,7.2s-3.1,4.4-2.6,5.1a1.5,1.5,0,0,0,1.9-.9c1.5-3.3,6-4.9,6.7-6.7s.3-4.4.2-5.6.9-1.2,1.6-1.1,1.4,1.4,1.8,2.7c2.9,7.5-4.3,12-5.5,13.8S122.1,123.9,119,125.8Zm6.1-29.1c-2.2,1.5-5.3-.5-4.7-1.4a43.7,43.7,0,0,1,11.5-11c3.4-2.1,3.8-2.3,4-1.1a10.6,10.6,0,0,1-2.6,7.5c-2.3,2.5-4.6,2.3-5.8,2.6S126.7,95.6,125.1,96.7Zm-19.3,25.6c-1-.2-1.4-2.1-1.2-2.9s3.1-5.2,4-6.4a.5.5,0,0,1,.8.3C110,117.4,109.4,123.1,105.8,122.3ZM138,48.2a17.7,17.7,0,0,1,7.5-1.6c.8.1-1.9,4.8-6.6,6.8s-8.5,2.5-8.9,2.3S134.1,49.9,138,48.2ZM54.7,126.5c-1.5-1.7-2.8-2.6-2.9-2.5a22.4,22.4,0,0,0-3.6,8.9A65.4,65.4,0,0,1,40.7,105C39.3,69.6,69,41.1,105.2,41.2a56.8,56.8,0,0,1,22.4,4.6,31.3,31.3,0,0,0-3.7,6.6c0-1.9-.5-3.4-.4-4.6s-5.1.9-9.7,8.3a19.9,19.9,0,0,0-2.2,5.3c-.1-2.8-.7-4.9-.9-4.9a16.1,16.1,0,0,0-8.5,8.8,22.4,22.4,0,0,0-1.1,3.4c-.2-1.9-.7-3.2-.9-3.2s-5.9,2.3-8.6,8.9A15.4,15.4,0,0,0,90.5,79c-.5-2.3-1.4-3.7-1.7-3.4-1.9,2.4-5.7,3.5-7.6,9.6a13.2,13.2,0,0,0-.7,4.2c-.8-2-2-3.2-2.3-3.2s-6.1,5.5-7,10.9a15.8,15.8,0,0,0,.2,5.8c-1.1-1.8-2.5-3-3.1-4.8-.9.5-5.7,5-5.8,10.7a19.7,19.7,0,0,0,.7,6.1c-1.6-2.9-3.8-4.2-4.1-4.1s-4,4.1-4.8,11.1A11.8,11.8,0,0,0,54.7,126.5Zm74.1-79.7c2.8-3.4,7.6-6.1,8.2-5.8s-.8,5.6-3.9,8.6-8.1,6.2-8.6,6.1S126.2,49.8,128.8,46.8Zm-9.3,13a21,21,0,0,0-5.6,6.4c-.5.9-1.9-5,1.7-10.6,2.2-3.5,6.6-6.6,6.5-6.2S124.2,56,119.5,59.8Zm-10.1,7.5c-3.4,5.1-3.6,3.3-7.3,8.3-.2.2-.2-6.5,1.1-9.4,2.1-4.7,5.7-7.4,6.2-7.5S111.3,64.5,109.4,67.3ZM98.3,77.4c-1.7,3-3.3,2.3-6.2,6.7-.3.4-1.1-3.6.7-9.1a12.6,12.6,0,0,1,5.9-6.9C99.3,68,100.4,73.8,98.3,77.4ZM88,88.1c-1.8,3.9-2.9,4-5,6.4-.3.4-1.8-3.7-.4-8.8s4-5.6,5.3-7S89.9,84,88,88.1Zm-8.4,6.6a10.3,10.3,0,0,1-.4,3c-1.3,4.3-3.9,6.2-5.3,8.1a15.7,15.7,0,0,1-1.6-5.8,15.2,15.2,0,0,1,5.2-11.2C78.3,88.8,79.6,92,79.6,94.7Zm-8.5,12.8A14.9,14.9,0,0,1,66,118.3a17.7,17.7,0,0,1-2.2-7.6c-.2-6.3,2.4-8.5,3.6-9.7C67.9,102.8,71.1,104.2,71.1,107.5ZM59,113.8c1.8.9,3.9,3.4,4.1,8.2s-3.2,8.7-4.6,9.4c-.9-3.7-2.6-4.4-2.6-8A18,18,0,0,1,59,113.8Zm7.3,12.5c4.6-2,9.6-1.7,9.8-1.5s-1.5,5.9-5.9,8.2-9.5,2.7-10,2.1S61.7,128.3,66.3,126.3Zm-.4-3.4c.3-1.5,3-6.5,7.1-8.3h0a18.4,18.4,0,0,1,9.4-1.5c.5.2-1.7,5.6-5.8,7.6S70.1,121.6,65.9,122.9Zm6.9-11.8c.2-.4,3.5-6.4,7.4-8.2a17.5,17.5,0,0,1,8.9-1.4c.3.1-1.8,5.4-6.2,7.6S72.6,111.6,72.8,111.1Zm8.9-11.9c-.3-.2,4.4-6.4,8.4-8.3a15.6,15.6,0,0,1,8.4-1c.3.3-1.9,5.5-6.5,7.5A24.2,24.2,0,0,1,81.7,99.2ZM92.4,87.4c-.2-.2,3.4-6.3,7.4-7.9s7.7-.1,8.9,0-1.3,4.5-6.6,6.4S93.1,87.7,92.4,87.4Zm12-11.4c.1-.3,4.1-5.9,8.1-7.3a16.4,16.4,0,0,1,9.2-.2c.5.2-2.8,5-7.7,6.5S104.3,76.3,104.4,76Zm12.1-9.9c-.5-.3,4.3-5.7,8.2-7.2a18,18,0,0,1,8.3-1c.3.2-2.5,4.9-7.1,6.7S117.1,66.5,116.5,66.1ZM50.2,175.3C28.6,158.1,15.6,132.1,15.6,105A89.3,89.3,0,0,1,146.4,25.8a.4.4,0,0,1,.1.7,97.3,97.3,0,0,0-10.2,11.4,73.1,73.1,0,0,0-31.3-7A74.3,74.3,0,0,0,30.9,105a72.1,72.1,0,0,0,17.9,48.2,23.1,23.1,0,0,0-1.9,9.4A25.6,25.6,0,0,0,50.2,175.3Zm.2-24.8h-.1A69.2,69.2,0,0,1,33.9,105,71.2,71.2,0,0,1,105,33.9a70.1,70.1,0,0,1,29.6,6.4,22.6,22.6,0,0,0-4.1,2.6A63.1,63.1,0,0,0,105,37.8,67.3,67.3,0,0,0,37.8,105c0,16.1,5,30.2,14.8,42C52.1,147.9,51.3,149.1,50.4,150.5Zm3.5-5.6c-1.3-1.2-4.1-4.3-4.4-8.3V136c0-4.3,1.9-8.6,2.4-9s5.3,3.3,5.4,8.7A14.4,14.4,0,0,1,53.9,144.9Zm8-7.2c3.9-1.8,9.6-1.4,9.3-1.1s-1.8,5.8-6.2,8a12.1,12.1,0,0,1-8.7,1.3C58.6,143.3,58.1,139.5,61.9,137.7Zm5.2,46.5c-.6-2.7-.4-6.3.5-7.3s4.9-1.2,5-.1-1.1,5.4.3,10.2C72.6,187.7,68.3,187.4,67.1,184.2Zm.3-11.1c-.3-2,1.6-3.9,1.6-8.2s-6.6-12.6-11.1-17.3a19.5,19.5,0,0,0,7.9-1.9c6.6-3.1,7.9-10.1,8.1-10.4a11,11,0,0,0-3.8-.4l.8-.4c6.4-3.5,8.1-11,7.8-11.1a17,17,0,0,0-4-.3l2-.7c6.8-2.7,8.7-10.3,8.5-10.6a16.1,16.1,0,0,0-3.5-.4l1.9-.8c6.2-3.1,8.4-10.1,8.1-10.3a10.5,10.5,0,0,0-3.3-.4,23.7,23.7,0,0,0,4.5-1.5c6.7-2.9,8.9-9.3,8.6-9.6a10.9,10.9,0,0,0-3-.5,34.5,34.5,0,0,0,4.4-1.3c6.6-2.2,9.2-8.5,8.8-8.6l-3.7-.8a24.5,24.5,0,0,0,6.6-1.3c7.1-2.4,9.6-6.7,9.8-8.6a6,6,0,0,0-2.3-.8,29.3,29.3,0,0,0,4.7-1.2c6.6-2.7,9.4-9.3,9.6-9.8a29.3,29.3,0,0,0,3.9-1.6l1.9-.9,1.6,1.1c1,.6,1.4.8.9,1.2C122,75,105,99.5,97.6,111.3c-.2.4-.6.3-1.3.3-7.9-.6-12.4,8.9-8.9,17.8-.4,1.8-4.2,5.3-4.5,5.5s-1,1.4.3,1.3,4.2-3.2,5.4-4.5c.4.6,2.2,2,1.3,2.8A63.6,63.6,0,0,1,76,145c-2.6,1.2,4.2,2.1,15.7-8.3.7-.6,1.5,2.4,2.5,3.7-2,6.5,2.9,19.1,2.1,23a2.8,2.8,0,0,1-2.8,2.7c-11.4.3-12.5-.3-18.3,1.4-2.7.8-2,2.6-.1,2.1s4.6-1.5,16.9-.7c3.1.1,6.5-.6,6.5-5.7s-3.6-18.4-2.4-20.3a6.9,6.9,0,0,0,3.5,1.4c-.2,4.5,7,19,3.8,27-1.2,3-6.4,2.7-15.4,1.8C72.7,171.6,67.7,174.9,67.4,173.1Zm35.1,9.9c-5.9,2-8.3-4.9-7.3-6.4s4.4,1,7.3-.9S106,181.8,102.5,183Zm-27,4.3c-.8-3.7-1.1-10,.4-11.5s4.9-.9,4.8.2c-.3,4.3-2.1,9.2,1.2,14.1C83.2,192,76.7,192.3,75.5,187.3Zm11.4,4.2c-1.6-.4-6-7.4-2.4-15.8.3-.8,5.8-.3,6.8,0s-.8,6.8,6.8,9.8C98.8,185.8,98,194.3,86.9,191.5Zm47.2-23.3c-2.5,8.8-3.8,12.3,0,21.9.5,1.3.9,2.3-.2,2.1-7.7-1.4-9.4-2.6-33.7-.6-1.7.2.6-3.4.3-5.8,2.2-.3,5.8-1.3,6.5-4.9s-2.1-7.6-1.8-8.2c3.5-6.7-.2-14.1-3.1-26.6-.3-1.2.4-1.7.9-1.1,15.6,16.9,25.5,20.2,30.9,21.8C134.4,167,134.3,167.6,134.1,168.2ZM174,122.1c-3.3,2.9-8.3,3.1-10.3,4.9s-1.5,2.5-.4,5.2,1.1,1.7-1.1,2.3-4.1,5.8-8.8,4.9c-1.8-.3-.5.8.2.9,2.6.3,3.7-.5,4.6-1.4s2.2-2.4,3.6-2.9,2.9-.5,3,.6-1.9,2.1-2.7,2.5c1,.5,3.9,1.9,1.4,3.6s-4.6-.5-4.9-.7-1.7-.2-1.3.3,5.2,1.3,4.5,2.2c-3.5,4.7-.6,7.5-1.7,12.3s-7.7,7.5-12.8,8.4c-17.4,3.1-34.3-11.6-44.2-22.8.9-2.1.8-4.8-.1-3.8s-.7,2.4-2.8,2.9c-3.9,1-5.7-5.9-6.9-7.1-4.8-4.7-6.7-11.4-3.9-17.3s9-4.7,11.4-1.1,1.7,7,3.4,8.3,4.8.2,5.4,0,1.7,4.3,8,4.1,5.9-10.7,6.9-11.6c8.6-8.4,4.2-15.9,2.6-17.6s1-3.6,1.5-3.7a13,13,0,0,0,9.4-7.7s8.4-.2,11.4-6.2c.8-1.6,3.3,1.5,8.9-2.9a.8.8,0,0,1,1.4.3c3.7,8.9,5.2,11.3,4.9,15.8s8.7,21.5,9.4,23.1S174.8,121.3,174,122.1Z"/><path class="minerva-base-style" d="M153.8,90c-4.9.2-10.6,6.2-12.4,7s-1.3,1.5-.2,1.1,5.9-4.7,10.7-6.4,3.6,1.8,5,1.6S156.6,89.9,153.8,90Z"/><path class="minerva-base-style" d="M154.9,94.8c-.4.1.4,2.2-1.7,2.3-4.6.3-8.3,4.7-11.1,6a12.9,12.9,0,0,1-3.8,1.4.3.3,0,0,0,.1.6c11.7,1.6,16.2,1.1,16.3.7s-.6-1.2-.4-1.7a11.3,11.3,0,0,0,.1-5.5c-.2-.8,1.8-.3,1.8-1.3S155.6,94.7,154.9,94.8Zm-1.8,9.3c-.2.9-5.5.5-8.3.2-.7,0-1.8-.1.3-1.4s4.1-2.8,7.2-3.4a.8.8,0,0,1,.8.6A10.6,10.6,0,0,1,153.1,104.1Z"/><path class="minerva-base-style" d="M168.4,120.8c-.9,0-4.5,1.6-5.9,2.5s-4.4,2.7-4.2-.8c.1-1.3.9-4.4.9-5.3s-1-.7-1.1,0a36.9,36.9,0,0,1-.7,5.3c-.4,1.8,1.2,4,3.6,2.7s4.8-2.9,7.3-3.4C168.9,121.7,169,120.8,168.4,120.8Z"/><path class="minerva-base-style" d="M100.5,133.6c-.7-.3-.5,1.2-1.4,1s-.2-1.3-1.8-3-2.8-1.2-4.3-3.6-.3-12,3.1-10.8,1.6,5,1,8,2.5,2.8,2.8,2.1-1.1-.9-1.4-1.9,3.5-7.6-1.8-9.4c-3.8-1.3-6.4,3.6-5.9,8.9a8,8,0,0,0,5.1,7.1c2.3.8.6,4,3.7,4C101,136,101.3,133.9,100.5,133.6Z"/><path class="minerva-base-style" d="M131.3,33.4c.2.1.3,0,.5-.1l6.5-8.3a.5.5,0,0,0-.2-.6L137,24a.4.4,0,0,0-.5.1L130,32.4c-.2.2-.1.5.2.6Z"/><path class="minerva-base-style" d="M119.2,30l1.1.3a.5.5,0,0,0,.5-.3l3.8-9.4a.4.4,0,0,0-.3-.6l-1.2-.2h-.3l-3.9,9.6A.4.4,0,0,0,119.2,30Z"/><path class="minerva-base-style" d="M105.8,28.7h1.1c.2.1.4-.1.4-.3l1-10a.5.5,0,0,0-.4-.5h-1.1c-.3,0-.4.2-.5.4l-.9,10A.4.4,0,0,0,105.8,28.7Z"/><path class="minerva-base-style" d="M92.8,29.7l1.1-.2c.2,0,.4-.2.3-.4l-1.9-9.9c0-.2-.2-.4-.4-.3H90.7c-.2.1-.4.3-.3.5l1.9,9.9C92.3,29.6,92.5,29.7,92.8,29.7Z"/><path class="minerva-base-style" d="M79.4,32.8l.5.2,1.1-.4a.4.4,0,0,0,.3-.6l-4.6-9a.4.4,0,0,0-.5-.2l-1,.3a.4.4,0,0,0-.3.6Z"/><path class="minerva-base-style" d="M67,38.5c.1.2.3.2.5.1l1-.6a.4.4,0,0,0,.1-.6l-6.7-7.7c-.2-.2-.4-.2-.5-.1l-1,.6c-.3.1-.3.4-.1.6Z"/><path class="minerva-base-style" d="M55.4,46.7c.2.1.4.1.5-.1l.9-.7a.5.5,0,0,0,0-.7l-8.5-5.9h-.5l-.9.8a.5.5,0,0,0,0,.7Z"/><path class="minerva-base-style" d="M45.4,57.1a.4.4,0,0,0,.4-.2l.8-.9c.2-.2.1-.5-.2-.6l-9.8-3.8c-.2-.1-.4-.1-.5.1l-.7.9a.4.4,0,0,0,.2.7Z"/><path class="minerva-base-style" d="M26.8,67.8l10.5,1.5c.2,0,.4-.1.4-.3l.6-1a.4.4,0,0,0-.3-.6L27.5,65.9l-.5.2a5.4,5.4,0,0,1-.5,1.1A.4.4,0,0,0,26.8,67.8Z"/><path class="minerva-base-style" d="M21.1,83.7l10.7-1a.3.3,0,0,0,.3-.3,7.6,7.6,0,0,0,.4-1.1.4.4,0,0,0-.4-.6l-10.8,1-.4.3-.3,1.2C20.6,83.5,20.8,83.8,21.1,83.7Z"/><path class="minerva-base-style" d="M29.2,96.5c0-.4.1-.9.1-1.3s-.2-.5-.5-.4L18.4,98.4c-.2.1-.3.2-.3.4s-.1.8-.1,1.2a.4.4,0,0,0,.6.4l10.3-3.6A.3.3,0,0,0,29.2,96.5Z"/><path class="minerva-base-style" d="M28.9,110.8v-1.3a.5.5,0,0,0-.7-.4l-9.4,6.3c-.2,0-.2.2-.2.4s.1.8.1,1.2a.5.5,0,0,0,.7.3l9.4-6.2C28.9,111,29,110.9,28.9,110.8Z"/><path class="minerva-base-style" d="M31.3,125l-.3-1.3a.4.4,0,0,0-.7-.2L22.6,132c-.1.1-.2.3-.1.4s.3.8.4,1.2a.4.4,0,0,0,.7.2l7.6-8.4C31.3,125.3,31.3,125.2,31.3,125Z"/><path class="minerva-base-style" d="M35.2,137.7,29.8,148c-.1.1,0,.3,0,.4l.7,1.2a.4.4,0,0,0,.7-.1l5.4-10.2c0-.1.1-.2,0-.4l-.6-1.2A.5.5,0,0,0,35.2,137.7Z"/><path class="minerva-base-style" d="M42.9,149.3c-.2-.3-.7-.2-.7.1l-2.9,12c-.1.2,0,.3,0,.4l1,1a.4.4,0,0,0,.7-.1l2.8-11.9c.1-.1,0-.2,0-.3Z"/></g><rect x="366.666" y="0" width="2.65" height="300" style="fill: #666666"/><g transform="translate(435.98199999999997 0) scale(1.2329949447207267) translate(0 0)"><title>Logo_MPIPSYKL_col</title><g class="cls-2"><path class="cls-3" d="M58.4,131h0a72.56,72.56,0,0,1,2.94-15.42A74.09,74.09,0,1,1,129.8,211.2" transform="translate(-2.45 -21.35)"/><path class="cls-4" d="M132.7,232.89h0a95.78,95.78,0,0,1-69.75-27C24.59,168.48,24.59,106.32,63,67s100.48-40.83,138.84-3.45c34.3,33.43,38.41,87.52,9.69,127.33" transform="translate(-2.45 -21.35)"/><line class="cls-5" x1="145.5" y1="87.12" x2="145.5" y2="177.88"/><path class="cls-5" d="M166.44,90.45h0c-.54,32.52-12.85,58.29-27.82,58.29-15.37,0-27.83-27.09-27.83-60.51" transform="translate(-2.45 -21.35)"/><line class="cls-6" x1="145.5" y1="87.12" x2="145.5" y2="177.88"/><path class="cls-6" d="M166.44,90.45h0c-.54,32.52-12.85,58.29-27.82,58.29-15.37,0-27.83-27.09-27.83-60.51" transform="translate(-2.45 -21.35)"/><path class="cls-7" d="M197,28.85h0a124.5,124.5,0,0,1,53.57,73.21c17.59,66.06-21.1,133.68-86.38,151s-132.45-22.14-150-88.17a124.63,124.63,0,0,1,1.77-70.29" transform="translate(-2.45 -21.35)"/></g></g><g transform="translate(823.0170764867864 41.434619)"><g transform="translate(0 99.060381)" style="fill: #00445F;"><path d="M5.500-62L22.094-62L37.922-17.029L53.656-62L70.328-62L70.328 0L57.594 0L57.594-16.951L58.859-46.213L42.234 0L33.516 0L16.922-46.166L18.203-16.951L18.203 0L5.500 0L5.500-62ZM129.563 0L125.281-12.719L103.031-12.719L98.797 0L85.297 0L108.234-62L120-62L143.063 0L129.563 0ZM114.109-46.339L106.453-23L121.859-23L114.109-46.339ZM168-62L179.547-40.631L191.109-62L205.703-62L187.766-31.259L206.172 0L191.391 0L179.547-21.715L167.703 0L152.938 0L171.344-31.259L153.391-62L168-62ZM275.328-21.703L264.203-21.703L264.203 0L251.500 0L251.500-62L275.531-62Q282.484-62 287.750-59.436Q293.016-56.872 295.852-52.155Q298.688-47.437 298.688-41.410L298.688-41.410Q298.688-32.259 292.484-26.981Q286.281-21.703 275.328-21.703L275.328-21.703ZM264.203-51.719L264.203-32L275.531-32Q280.578-32 283.219-34.415Q285.859-36.830 285.859-41.325L285.859-41.325Q285.859-45.932 283.195-48.786Q280.531-51.639 275.828-51.719L275.828-51.719L264.203-51.719ZM329.203-62L329.203-10.203L356.156-10.203L356.156 0L316.500 0L316.500-62L329.203-62ZM411.563 0L407.281-12.719L385.031-12.719L380.797 0L367.297 0L390.234-62L402-62L425.063 0L411.563 0ZM396.109-46.339L388.453-23L403.859-23L396.109-46.339ZM489.609-62L489.609 0L476.906 0L452.203-40.804L452.203 0L439.500 0L439.500-62L452.203-62L476.953-21.117L476.953-62L489.609-62ZM545.172-20.375L557.875-20.375Q557.156-10.422 550.531-4.711Q543.906 1 533.078 1L533.078 1Q521.219 1 514.430-6.937Q507.641-14.874 507.641-28.728L507.641-28.728L507.641-32.475Q507.641-41.321 510.773-48.054Q513.906-54.786 519.727-58.393Q525.547-62 533.234-62L533.234-62Q543.906-62 550.422-56.281Q556.938-50.563 557.953-40.234L557.953-40.234L545.266-40.234Q544.797-46.203 541.938-48.891Q539.078-51.578 533.234-51.578L533.234-51.578Q526.891-51.578 523.742-47.065Q520.594-42.551 520.500-33.059L520.500-33.059L520.500-28.437Q520.500-18.526 523.531-13.943Q526.563-9.359 533.078-9.359L533.078-9.359Q538.953-9.359 541.852-12.047Q544.750-14.734 545.172-20.375L545.172-20.375ZM609.625 0L593.797-24.875L587.203-17.721L587.203 0L574.500 0L574.500-62L587.203-62L587.203-33.901L592.781-41.606L608.484-62L624.094-62L602.219-34.451L624.734 0L609.625 0ZM682-62L682 0L669.313 0L669.313-62L682-62ZM752.609-62L752.609 0L739.906 0L715.203-40.804L715.203 0L702.500 0L702.500-62L715.203-62L739.953-21.117L739.953-62L752.609-62ZM804.453-15.963L804.453-15.963Q804.453-19.529 801.914-21.436Q799.375-23.344 792.773-25.468Q786.172-27.593 782.313-29.660L782.313-29.660Q771.828-35.289 771.828-44.851L771.828-44.851Q771.828-49.826 774.641-53.721Q777.453-57.615 782.719-59.808Q787.984-62 794.547-62L794.547-62Q801.156-62 806.313-59.613Q811.469-57.227 814.328-52.897Q817.188-48.567 817.188-43.047L817.188-43.047L804.500-43.047Q804.500-47.237 801.828-49.556Q799.156-51.875 794.344-51.875L794.344-51.875Q789.688-51.875 787.102-49.930Q784.516-47.985 784.516-44.820L784.516-44.820Q784.516-41.841 787.547-39.834Q790.578-37.827 796.453-36.052L796.453-36.052Q807.281-32.814 812.234-28.003Q817.188-23.193 817.188-16.032L817.188-16.032Q817.188-8.061 811.141-3.530Q805.094 1 794.844 1L794.844 1Q787.734 1 781.898-1.589Q776.063-4.177 772.992-8.686Q769.922-13.195 769.922-19.119L769.922-19.119L782.656-19.119Q782.656-9.031 794.844-9.031L794.844-9.031Q799.375-9.031 801.914-10.853Q804.453-12.675 804.453-15.963ZM880.875-62L880.875-51.719L862.016-51.719L862.016 0L849.313 0L849.313-51.719L830.688-51.719L830.688-62L880.875-62ZM910-62L910 0L897.313 0L897.313-62L910-62ZM975.875-62L975.875-51.719L957.016-51.719L957.016 0L944.313 0L944.313-51.719L925.688-51.719L925.688-62L975.875-62ZM1025.391-62L1038.141-62L1038.141-21.067Q1038.141-10.869 1031.813-4.934Q1025.484 1 1014.516 1L1014.516 1Q1003.734 1 997.383-4.761Q991.031-10.522 990.906-20.594L990.906-20.594L990.906-62L1003.609-62L1003.609-20.918Q1003.609-14.792 1006.508-11.998Q1009.406-9.203 1014.516-9.203L1014.516-9.203Q1025.234-9.203 1025.391-20.571L1025.391-20.571L1025.391-62ZM1103.875-62L1103.875-51.719L1085.016-51.719L1085.016 0L1072.313 0L1072.313-51.719L1053.688-51.719L1053.688-62L1103.875-62ZM1156.578-37L1156.578-27.063L1132.203-27.063L1132.203-10.203L1160.797-10.203L1160.797 0L1119.500 0L1119.500-62L1160.719-62L1160.719-51.719L1132.203-51.719L1132.203-37L1156.578-37Z"/></g><g transform="translate(0 179.070381)" style="fill: #00445F;"><path d="M44.063-26.035L44.063-22.903Q44.063-15.610 41.602-10.172Q39.141-4.734 34.625-1.867Q30.109 1 24.094 1L24.094 1Q18.219 1 13.672-1.883Q9.125-4.765 6.617-10.102Q4.109-15.439 4.031-22.451L4.031-22.451L4.031-26.035Q4.031-33.187 6.531-38.680Q9.031-44.172 13.594-47.086Q18.156-50 24.031-50L24.031-50Q30.016-50 34.578-47.117Q39.141-44.235 41.602-38.765Q44.063-33.296 44.063-26.035L44.063-26.035ZM37.531-22.421L37.531-26.096Q37.531-34.924 33.977-39.642Q30.422-44.359 24.031-44.359L24.031-44.359Q17.813-44.359 14.242-39.642Q10.672-34.924 10.563-26.547L10.563-26.547L10.563-22.904Q10.563-14.356 14.172-9.467Q17.781-4.578 24.094-4.578L24.094-4.578Q30.453-4.578 33.938-9.195Q37.422-13.811 37.531-22.421L37.531-22.421ZM84.219-27L84.219-21.641L63.344-21.641L63.344 0L56.781 0L56.781-50L87.609-50L87.609-44.594L63.344-44.594L63.344-27L84.219-27ZM137.063-19.641L125.344-19.641L125.344 0L118.781 0L118.781-50L137.125-50Q145.297-50 149.930-45.817Q154.563-41.635 154.563-34.758L154.563-34.758Q154.563-27.489 150.031-23.565Q145.500-19.641 137.063-19.641L137.063-19.641ZM125.344-44.594L125.344-25L137.125-25Q142.391-25 145.195-27.494Q148-29.989 148-34.679L148-34.679Q148-39.150 145.195-41.825Q142.391-44.500 137.500-44.594L137.500-44.594L125.344-44.594ZM180.438-21.812L180.438-21.812Q172-24.227 168.156-27.757Q164.313-31.286 164.313-36.459L164.313-36.459Q164.313-42.334 169.008-46.167Q173.703-50 181.219-50L181.219-50Q186.359-50 190.375-48.016Q194.391-46.031 196.594-42.547Q198.797-39.063 198.797-34.922L198.797-34.922L192.203-34.922Q192.203-39.438 189.328-42.016Q186.453-44.594 181.219-44.594L181.219-44.594Q176.375-44.594 173.656-42.470Q170.938-40.347 170.938-36.567L170.938-36.567Q170.938-33.533 173.516-31.441Q176.094-29.349 182.297-27.614Q188.500-25.880 192.008-23.783Q195.516-21.686 197.203-18.887Q198.891-16.088 198.891-12.300L198.891-12.300Q198.891-6.266 194.180-2.633Q189.469 1 181.563 1L181.563 1Q176.438 1 171.992-0.969Q167.547-2.938 165.141-6.352Q162.734-9.766 162.734-14.109L162.734-14.109L169.328-14.109Q169.328-9.594 172.664-6.984Q176-4.375 181.563-4.375L181.563-4.375Q186.766-4.375 189.531-6.484Q192.297-8.594 192.297-12.236Q192.297-15.879 189.734-17.872Q187.172-19.864 180.438-21.812ZM212.031-50L224.953-24.898L237.938-50L245.391-50L228.234-18.650L228.234 0L221.672 0L221.672-18.650L204.516-50L212.031-50ZM283.781-15.484L290.391-15.484Q289.453-7.578 284.555-3.289Q279.656 1 271.516 1L271.516 1Q262.703 1 257.383-5.311Q252.063-11.621 252.063-22.186L252.063-22.186L252.063-26.954Q252.063-33.873 254.547-39.124Q257.031-44.375 261.570-47.187Q266.109-50 272.094-50L272.094-50Q280.031-50 284.813-45.570Q289.594-41.141 290.391-33.313L290.391-33.313L283.781-33.313Q282.938-39.266 280.078-41.930Q277.219-44.594 272.094-44.594L272.094-44.594Q265.813-44.594 262.242-39.962Q258.672-35.329 258.672-26.781L258.672-26.781L258.672-21.985Q258.672-13.904 262.055-9.140Q265.438-4.375 271.516-4.375L271.516-4.375Q276.984-4.375 279.906-6.852Q282.828-9.328 283.781-15.484L283.781-15.484ZM340.031-50L340.031 0L333.422 0L333.422-22.625L308.344-22.625L308.344 0L301.781 0L301.781-50L308.344-50L308.344-28L333.422-28L333.422-50L340.031-50ZM361.813-50L361.813 0L355.250 0L355.250-50L361.813-50ZM409.016 0L404.250-12.594L383.406-12.594L378.719 0L371.953 0L390.969-50L396.703-50L415.734 0L409.016 0ZM393.828-41.868L385.391-18L402.313-18L393.828-41.868ZM455.156-50L455.156-44.594L439.172-44.594L439.172 0L432.641 0L432.641-44.594L416.672-44.594L416.672-50L455.156-50ZM494.828 0L484.031-20.625L472.344-20.625L472.344 0L465.750 0L465.750-50L482.219-50Q490.625-50 495.156-46.206Q499.688-42.412 499.688-35.165L499.688-35.165Q499.688-30.551 497.172-27.136Q494.656-23.722 490.188-22.019L490.188-22.019L501.875-0.415L501.875 0L494.828 0ZM472.344-44.594L472.344-26L482.422-26Q487.313-26 490.203-28.496Q493.094-30.991 493.094-35.166L493.094-35.166Q493.094-39.710 490.336-42.137Q487.578-44.563 482.391-44.594L482.391-44.594L472.344-44.594ZM512.031-50L524.953-24.898L537.938-50L545.391-50L528.234-18.650L528.234 0L521.672 0L521.672-18.650L504.516-50L512.031-50Z"/></g></g></svg>